<svg aria-hidden="true" style="position: absolute; width: 0; height: 0; overflow: hidden;" version="1.1" xmlns="http://www.w3.org/2000/svg" xmlns:xlink="http://www.w3.org/1999/xlink">
<defs>
<symbol id="icon-calendar" viewBox="0 0 32 32">
<path fill="none" stroke="#f3f3f3" style="stroke: var(--color1, #f3f3f3)" stroke-linejoin="round" stroke-linecap="round" stroke-miterlimit="4" stroke-width="2.4" d="M25.333 5.334h-18.667c-1.473 0-2.667 1.194-2.667 2.667v18.667c0 1.473 1.194 2.667 2.667 2.667h18.667c1.473 0 2.667-1.194 2.667-2.667v-18.667c0-1.473-1.194-2.667-2.667-2.667z"></path>
<path fill="none" stroke="#f3f3f3" style="stroke: var(--color1, #f3f3f3)" stroke-linejoin="round" stroke-linecap="round" stroke-miterlimit="4" stroke-width="2.4" d="M21.334 2.666v5.333"></path>
<path fill="none" stroke="#f3f3f3" style="stroke: var(--color1, #f3f3f3)" stroke-linejoin="round" stroke-linecap="round" stroke-miterlimit="4" stroke-width="2.4" d="M10.666 2.666v5.333"></path>
<path fill="none" stroke="#f3f3f3" style="stroke: var(--color1, #f3f3f3)" stroke-linejoin="round" stroke-linecap="round" stroke-miterlimit="4" stroke-width="2.4" d="M4 13.334h24"></path>
</symbol>
<symbol id="icon-close" viewBox="0 0 32 32">
<path fill="#f3f3f3" style="fill: var(--color1, #f3f3f3)" d="M25.333 8.547l-1.88-1.88-7.453 7.453-7.453-7.453-1.88 1.88 7.453 7.453-7.453 7.453 1.88 1.88 7.453-7.453 7.453 7.453 1.88-1.88-7.453-7.453 7.453-7.453z"></path>
</symbol>
<symbol id="icon-menu" viewBox="0 0 32 32">
<path fill="none" stroke="#f3f3f3" style="stroke: var(--color1, #f3f3f3)" stroke-linejoin="miter" stroke-linecap="round" stroke-miterlimit="4" stroke-width="2" d="M4 9.333h24"></path>
<path fill="none" stroke="#f3f3f3" style="stroke: var(--color1, #f3f3f3)" stroke-linejoin="miter" stroke-linecap="round" stroke-miterlimit="4" stroke-width="2" d="M4 16h24"></path>
<path fill="none" stroke="#f3f3f3" style="stroke: var(--color1, #f3f3f3)" stroke-linejoin="miter" stroke-linecap="round" stroke-miterlimit="4" stroke-width="2" d="M4 22.667h24"></path>
</symbol>
<symbol id="icon-delete" viewBox="0 0 32 32">
<path fill="none" stroke="#fff" style="stroke: var(--color2, #fff)" stroke-linejoin="round" stroke-linecap="round" stroke-miterlimit="4" stroke-width="2.6182" d="M4 8h24"></path>
<path fill="none" stroke="#fff" style="stroke: var(--color2, #fff)" stroke-linejoin="round" stroke-linecap="round" stroke-miterlimit="4" stroke-width="2.6182" d="M25.334 8v18.667c0 0.707-0.281 1.385-0.781 1.886s-1.178 0.781-1.886 0.781h-13.333c-0.707 0-1.386-0.281-1.886-0.781s-0.781-1.178-0.781-1.886v-18.667M10.667 8v-2.667c0-0.707 0.281-1.386 0.781-1.886s1.178-0.781 1.886-0.781h5.333c0.707 0 1.385 0.281 1.886 0.781s0.781 1.178 0.781 1.886v2.667"></path>
<path fill="none" stroke="#fff" style="stroke: var(--color2, #fff)" stroke-linejoin="round" stroke-linecap="round" stroke-miterlimit="4" stroke-width="2.6182" d="M13.333 14.667v8"></path>
<path fill="none" stroke="#fff" style="stroke: var(--color2, #fff)" stroke-linejoin="round" stroke-linecap="round" stroke-miterlimit="4" stroke-width="2.6182" d="M18.667 14.667v8"></path>
</symbol>
<symbol id="icon-edit" viewBox="0 0 32 32">
<path fill="#3a6af5" style="fill: var(--color3, #3a6af5)" d="M6.769 21.385v3.846h3.846l11.344-11.344-3.846-3.846-11.344 11.344zM24.933 10.913c0.4-0.4 0.4-1.046 0-1.446l-2.4-2.4c-0.4-0.4-1.046-0.4-1.446 0l-1.877 1.877 3.846 3.846 1.877-1.877z"></path>
</symbol>
<symbol id="cafes" viewBox="0 0 32 32">
<path fill="#3a6af5" style="fill: var(--color3, #3a6af5)" d="M14.667 12h-2.667v-9.333h-2.667v9.333h-2.667v-9.333h-2.667v9.333c0 2.827 2.213 5.12 5 5.293v12.040h3.333v-12.040c2.787-0.173 5-2.467 5-5.293v-9.333h-2.667v9.333zM21.333 8v10.667h3.333v10.667h3.333v-26.667c-3.68 0-6.667 2.987-6.667 5.333z"></path>
</symbol>
<symbol id="health" viewBox="0 0 32 32">
<path fill="#242424" style="fill: var(--color4, #242424)" d="M11.4 16c-1.427-0.947-3-1.693-4.707-2.147 1.707 0.453 3.28 1.2 4.707 2.147zM25.307 13.853c-1.72 0.453-3.32 1.213-4.76 2.187 1.44-0.973 3.040-1.733 4.76-2.187z"></path>
<path fill="#3a6af5" style="fill: var(--color3, #3a6af5)" d="M20.653 12.84c-0.24-3.72-1.747-7.347-4.573-10.173-2.853 2.853-4.427 6.48-4.733 10.173 1.707 0.907 3.28 2.080 4.653 3.507 1.373-1.413 2.947-2.587 4.653-3.507v0zM11.987 16.373c-0.187-0.133-0.4-0.253-0.6-0.387 0.2 0.147 0.413 0.253 0.6 0.387zM20.547 16.040c-0.173 0.12-0.36 0.213-0.533 0.347 0.173-0.133 0.36-0.227 0.533-0.347zM16 20.6c-2.867-4.373-7.76-7.267-13.333-7.267 0 7.093 4.48 13.093 10.707 15.32 0.84 0.307 1.72 0.533 2.627 0.68 0.907-0.16 1.773-0.387 2.627-0.68 6.227-2.227 10.707-8.227 10.707-15.32-5.573 0-10.467 2.893-13.333 7.267z"></path>
</symbol>
<symbol id="icon-house" viewBox="0 0 32 32">
<path fill="#3a6af5" style="fill: var(--color3, #3a6af5)" d="M25.333 12.4v-7.067h-4v3.467l-5.333-4.8-13.333 12h4v10.667h6.667v-8h5.333v8h6.667v-10.667h4l-4-3.6zM13.333 13.333c0-1.467 1.2-2.667 2.667-2.667s2.667 1.2 2.667 2.667h-5.333z"></path>
</symbol>
<symbol id="icon-log-out" viewBox="0 0 32 32">
<path d="M5.963 2.347c-1.073 0.195-1.993 0.746-2.653 1.525l-0.005 0.007c-0.371 0.467-0.665 1.015-0.852 1.61l-0.010 0.036-0.123 0.423v20.105l0.123 0.423c0.427 1.481 1.566 2.629 3.049 3.079 0.395 0.119 0.45 0.121 3.627 0.139 3.173 0.018 3.23 0.016 3.579-0.096 0.225-0.061 0.418-0.178 0.569-0.336l0-0c0.587-0.601 0.585-1.922-0.002-2.526-0.409-0.421-0.311-0.411-3.803-0.441l-3.097-0.027-0.217-0.144c-0.138-0.097-0.25-0.224-0.326-0.371l-0.003-0.006-0.112-0.233v-19.026l0.112-0.233c0.079-0.153 0.191-0.28 0.326-0.375l0.003-0.002 0.217-0.144 3.097-0.025c3.483-0.030 3.353-0.016 3.799-0.441 0.594-0.569 0.597-1.925 0.002-2.535-0.148-0.159-0.339-0.275-0.554-0.332l-0.008-0.002c-0.322-0.098-0.498-0.105-3.415-0.098-0.153-0.001-0.334-0.002-0.515-0.002-0.988 0-1.971 0.018-2.95 0.054l0.142-0.004zM21.013 7.566c-0.572 0.226-1.034 0.63-1.326 1.144l-0.007 0.013c-0.085 0.159-0.134 0.348-0.134 0.548 0 0.022 0.001 0.044 0.002 0.065l-0-0.003c0 0.608 0.039 0.656 2.288 2.921l2.027 2.039h-6.112c-5.968 0-6.121 0.002-6.459 0.107-0.654 0.203-0.999 0.754-0.999 1.6 0 0.837 0.354 1.399 1.010 1.602 0.322 0.101 0.542 0.105 6.446 0.105h6.114l-2.027 2.039c-2.249 2.265-2.288 2.313-2.288 2.921 0 0.448 0.158 0.768 0.587 1.198 0.43 0.432 0.75 0.587 1.198 0.585 0.642-0.002 0.578 0.050 4.277-3.616 1.838-1.822 3.458-3.415 3.6-3.538 0.341-0.33 0.559-0.786 0.578-1.293l0-0.003c-0.019-0.51-0.237-0.966-0.578-1.295l-0.001-0.001c-0.142-0.123-1.762-1.714-3.6-3.538-2.67-2.647-3.401-3.344-3.63-3.458-0.302-0.151-0.741-0.215-0.967-0.142z"></path>
</symbol>
<symbol id="medical" viewBox="0 0 32 32">
<path fill="#3a6af5" style="fill: var(--color3, #3a6af5)" d="M26.667 8h-5.333v-2.667c0-1.467-1.2-2.667-2.667-2.667h-5.333c-1.467 0-2.667 1.2-2.667 2.667v2.667h-5.333c-1.467 0-2.667 1.2-2.667 2.667v16c0 1.467 1.2 2.667 2.667 2.667h21.333c1.467 0 2.667-1.2 2.667-2.667v-16c0-1.467-1.2-2.667-2.667-2.667zM13.333 5.333h5.333v2.667h-5.333v-2.667zM21.333 20h-4v4h-2.667v-4h-4v-2.667h4v-4h2.667v4h4v2.667z"></path>
</symbol>
<symbol id="icon-nickname" viewBox="0 0 32 32">
<path fill="#f3f3f3" style="fill: var(--color1, #f3f3f3); stroke: var(--color3, #3a6af5)" stroke="#3a6af5" stroke-linejoin="miter" stroke-linecap="butt" stroke-miterlimit="4" stroke-width="1.6" d="M31.2 16c0 8.395-6.805 15.2-15.2 15.2s-15.2-6.805-15.2-15.2c0-8.395 6.805-15.2 15.2-15.2s15.2 6.805 15.2 15.2z"></path>
</symbol>
<symbol id="products" viewBox="0 0 32 32">
<path fill="#3a6af5" style="fill: var(--color3, #3a6af5)" d="M28.067 23.413l-23.96 1.253-0.107-2 23.973-1.253 0.093 2zM28 25.973h-24v2h24v-2zM29.333 6.667v9.333c0 1.467-1.2 2.667-2.667 2.667h-21.333c-1.467 0-2.667-1.2-2.667-2.667v-9.333c0-1.467 1.2-2.667 2.667-2.667h21.333c1.467 0 2.667 1.2 2.667 2.667zM26.667 8c-2.24 0-4.053 1.307-4.28 2.973-0.853-0.973-3.64-3.64-8.72-3.64-6.227 0-9 4-9 4s2.773 4 9 4c5.080 0 7.867-2.667 8.72-3.64 0.227 1.667 2.040 2.973 4.28 2.973v-6.667z"></path>
</symbol>
<symbol id="icon-stats" viewBox="0 0 32 32">
<path fill="#3a6af5" style="fill: var(--color3, #3a6af5)" d="M6.4 0h19.2c3.535 0 6.4 2.865 6.4 6.4v19.2c0 3.535-2.865 6.4-6.4 6.4h-19.2c-3.535 0-6.4-2.865-6.4-6.4v-19.2c0-3.535 2.865-6.4 6.4-6.4z"></path>
<path fill="#fff" style="fill: var(--color2, #fff)" d="M18.899 13.971v6.187h-0.666v-5.25h-1.901v5.25h-0.666v-4.312h-1.901v4.312h-0.666v-3.375h-1.901v3.937h9.6v-6.75h-1.901zM12.538 20.158h-0.776v-2.812h0.776v2.812zM15.105 20.158h-0.776v-3.75h0.776v3.75zM17.671 20.158h-0.776v-4.687h0.776v4.687zM20.238 20.158h-0.776v-5.625h0.776v5.625z"></path>
<path fill="#fff" style="fill: var(--color2, #fff)" d="M19.486 11.279l-0.296 0.478 0.602 0.373-8.576 3.109 0.192 0.529 8.56-3.104-0.258 0.658 0.524 0.206 0.564-1.437-1.312-0.812z"></path>
</symbol>
<symbol id="icon-toggle-invisible" viewBox="0 0 32 32">
<path fill="#f3f3f3" style="fill: var(--color1, #f3f3f3)" d="M21.467 17.733l-1.933-1.933c0.2-1.044-0.1-2.022-0.9-2.933s-1.833-1.267-3.1-1.067l-1.933-1.933c0.378-0.178 0.761-0.311 1.149-0.4s0.806-0.133 1.251-0.133c1.667 0 3.084 0.583 4.251 1.749s1.749 2.584 1.749 4.251c0 0.444-0.044 0.861-0.133 1.251s-0.222 0.772-0.4 1.149zM25.733 21.933l-1.933-1.867c0.844-0.644 1.595-1.35 2.251-2.117s1.216-1.638 1.683-2.616c-1.111-2.244-2.706-4.028-4.784-5.351s-4.394-1.983-6.949-1.983c-0.644 0-1.278 0.044-1.9 0.133s-1.233 0.222-1.833 0.4l-2.067-2.067c0.911-0.378 1.844-0.661 2.8-0.851s1.956-0.283 3-0.283c3.356 0 6.344 0.928 8.967 2.783s4.522 4.262 5.7 7.217c-0.511 1.311-1.183 2.528-2.016 3.651s-1.806 2.105-2.917 2.949zM26.4 30.133l-5.6-5.533c-0.778 0.244-1.561 0.428-2.349 0.551s-1.606 0.183-2.451 0.183c-3.356 0-6.344-0.928-8.967-2.783s-4.522-4.262-5.7-7.217c0.467-1.178 1.056-2.272 1.767-3.284s1.522-1.916 2.433-2.716l-3.667-3.733 1.867-1.867 24.533 24.533-1.867 1.867zM7.4 11.2c-0.644 0.578-1.233 1.211-1.767 1.9s-0.989 1.433-1.367 2.233c1.111 2.244 2.705 4.028 4.783 5.349s4.395 1.984 6.951 1.984c0.444 0 0.878-0.028 1.3-0.083s0.856-0.117 1.3-0.184l-1.2-1.267c-0.244 0.067-0.478 0.116-0.7 0.149s-0.456 0.051-0.7 0.051c-1.667 0-3.084-0.583-4.251-1.749s-1.749-2.584-1.749-4.251c0-0.244 0.016-0.478 0.049-0.7s0.084-0.456 0.151-0.7l-2.8-2.733z"></path>
</symbol>
<symbol id="icon-toggle-visible" viewBox="0 0 32 32">
<path fill="#f3f3f3" style="fill: var(--color1, #f3f3f3)" d="M16 6c-6.979 0-13.028 4.064-16 10 2.972 5.936 9.021 10 16 10s13.027-4.064 16-10c-2.972-5.936-9.021-10-16-10zM23.889 11.303c1.88 1.199 3.473 2.805 4.67 4.697-1.197 1.891-2.79 3.498-4.67 4.697-2.362 1.507-5.090 2.303-7.889 2.303s-5.527-0.796-7.889-2.303c-1.88-1.199-3.473-2.805-4.67-4.697 1.197-1.891 2.79-3.498 4.67-4.697 0.122-0.078 0.246-0.154 0.371-0.228-0.311 0.854-0.482 1.776-0.482 2.737 0 4.418 3.582 8 8 8s8-3.582 8-8c0-0.962-0.17-1.883-0.482-2.737 0.124 0.074 0.248 0.15 0.371 0.228v0zM16 13c0 1.657-1.343 3-3 3s-3-1.343-3-3 1.343-3 3-3 3 1.343 3 3z"></path>
</symbol>
<symbol id="other" viewBox="0 0 32 32">
<path fill="#3a6af5" style="fill: var(--color3, #3a6af5)" d="M18.893 18.28l1.867-3.227c0.12-0.2 0.067-0.453-0.107-0.6l-1.973-1.547c0.040-0.293 0.067-0.6 0.067-0.907s-0.027-0.613-0.067-0.92l1.973-1.547c0.173-0.147 0.227-0.4 0.107-0.6l-1.867-3.227c-0.12-0.2-0.36-0.28-0.573-0.2l-2.32 0.933c-0.48-0.373-1-0.68-1.573-0.92l-0.347-2.467c-0.040-0.213-0.24-0.387-0.467-0.387h-3.733c-0.227 0-0.427 0.173-0.467 0.4l-0.347 2.467c-0.56 0.24-1.093 0.547-1.573 0.92l-2.32-0.933c-0.213-0.080-0.453 0-0.573 0.2l-1.867 3.227c-0.12 0.2-0.067 0.453 0.107 0.6l1.973 1.547c-0.040 0.293-0.067 0.6-0.067 0.907s0.027 0.613 0.067 0.92l-1.973 1.547c-0.173 0.147-0.227 0.4-0.107 0.6l1.867 3.227c0.12 0.2 0.36 0.28 0.573 0.2l2.32-0.933c0.48 0.373 1 0.68 1.573 0.92l0.347 2.467c0.040 0.213 0.24 0.387 0.467 0.387h3.733c0.227 0 0.427-0.173 0.467-0.4l0.347-2.467c0.56-0.24 1.093-0.547 1.573-0.92l2.32 0.933c0.213 0.080 0.453 0 0.573-0.2zM11.747 14.667c-1.467 0-2.667-1.2-2.667-2.667s1.2-2.667 2.667-2.667c1.467 0 2.667 1.2 2.667 2.667s-1.2 2.667-2.667 2.667z"></path>
<path fill="#3a6af5" style="fill: var(--color3, #3a6af5)" d="M29.227 24.893l-1.28-0.987c0.027-0.187 0.053-0.387 0.053-0.587s-0.013-0.4-0.053-0.587l1.267-0.987c0.107-0.093 0.147-0.253 0.067-0.387l-1.2-2.067c-0.067-0.133-0.227-0.173-0.373-0.133l-1.48 0.6c-0.307-0.24-0.64-0.44-1.013-0.587l-0.227-1.573c-0.013-0.16-0.147-0.267-0.28-0.267h-2.387c-0.147 0-0.28 0.107-0.293 0.253l-0.227 1.573c-0.36 0.16-0.707 0.347-1.013 0.587l-1.48-0.6c-0.133-0.053-0.293 0-0.373 0.133l-1.2 2.067c-0.067 0.133-0.053 0.293 0.067 0.387l1.267 0.987c-0.027 0.187-0.040 0.387-0.040 0.587s0.013 0.4 0.040 0.587l-1.267 0.987c-0.107 0.093-0.147 0.253-0.067 0.387l1.2 2.067c0.067 0.133 0.227 0.173 0.373 0.133l1.48-0.6c0.307 0.24 0.64 0.44 1.013 0.587l0.227 1.573c0.027 0.147 0.147 0.253 0.293 0.253h2.387c0.147 0 0.28-0.107 0.293-0.253l0.227-1.573c0.36-0.16 0.707-0.347 1-0.587l1.493 0.6c0.133 0.053 0.293 0 0.373-0.133l1.2-2.067c0.080-0.12 0.040-0.28-0.067-0.373zM23.507 25.107c-0.987 0-1.8-0.8-1.8-1.8s0.8-1.8 1.8-1.8c1 0 1.8 0.8 1.8 1.8s-0.813 1.8-1.8 1.8z"></path>
</symbol>
<symbol id="transport" viewBox="0 0 32 32">
<path fill="#3a6af5" style="fill: var(--color3, #3a6af5)" d="M16 5.333h-9.333c-2.213 0-4 1.787-4 4v10.667c0 2.213 1.787 4 4 4l-1.333 1.333v1.333h1.333l2.667-2.707 2.667 0.040v-6.667h-6.667v-9.36l12 0.027v2.667h2.667v-1.333c0-2.213-1.787-4-4-4zM6.667 18.667c0.733 0 1.333 0.6 1.333 1.333s-0.6 1.333-1.333 1.333c-0.733 0-1.333-0.6-1.333-1.333s0.6-1.333 1.333-1.333zM27.427 12.88c-0.187-0.533-0.693-0.88-1.293-0.88h-9.587c-0.613 0-1.107 0.347-1.307 0.88l-1.907 5.48 0.013 7.347c0 0.507 0.413 0.96 0.92 0.96h0.827c0.507 0 0.907-0.507 0.907-1.013v-1.653h10.667v1.653c0 0.507 0.413 1.013 0.92 1.013h0.813c0.507 0 0.92-0.453 0.92-0.96l0.013-1.827v-5.52l-1.907-5.48zM16.547 13.333h9.587l1.373 4h-12.333l1.373-4zM16 21.333c-0.733 0-1.333-0.6-1.333-1.333s0.6-1.333 1.333-1.333c0.733 0 1.333 0.6 1.333 1.333s-0.6 1.333-1.333 1.333zM26.667 21.333c-0.733 0-1.333-0.6-1.333-1.333s0.6-1.333 1.333-1.333c0.733 0 1.333 0.6 1.333 1.333s-0.6 1.333-1.333 1.333z"></path>
</symbol>
<symbol id="icon-upload-pic-medium" viewBox="0 0 32 32">
<path fill="none" stroke="#fff" style="stroke: var(--color2, #fff)" stroke-linejoin="round" stroke-linecap="round" stroke-miterlimit="4" stroke-width="0.5" d="M28.191 11.429v-4.581c0-0.807-0.32-1.58-0.889-2.152s-1.342-0.893-2.149-0.896l-4.581-0.014M28.191 20.571v4.571c0 0.808-0.321 1.583-0.893 2.155s-1.347 0.893-2.155 0.893h-4.571M11.429 3.787l-4.581 0.015c-0.807 0.002-1.58 0.325-2.149 0.896s-0.889 1.345-0.889 2.152v4.579M11.429 28.19h-4.571c-0.808 0-1.583-0.321-2.155-0.893s-0.893-1.347-0.893-2.155v-4.571"></path>
<path fill="#fff" style="fill: var(--color2, #fff)" d="M16 18.75c0.625 0 1.156-0.219 1.594-0.656s0.656-0.969 0.656-1.594-0.219-1.156-0.656-1.594c-0.438-0.437-0.969-0.656-1.594-0.656s-1.156 0.219-1.594 0.656c-0.437 0.438-0.656 0.969-0.656 1.594s0.219 1.156 0.656 1.594c0.438 0.437 0.969 0.656 1.594 0.656zM12 20.5c-0.275 0-0.51-0.098-0.706-0.294s-0.294-0.431-0.294-0.706v-6c0-0.275 0.098-0.51 0.294-0.706s0.431-0.294 0.706-0.294h1.575l0.925-1h3l0.925 1h1.575c0.275 0 0.511 0.098 0.706 0.294s0.294 0.431 0.294 0.706v6c0 0.275-0.098 0.511-0.294 0.706s-0.431 0.294-0.706 0.294h-8z"></path>
</symbol>
<symbol id="icon-upload-pic-small" viewBox="0 0 32 32">
<path fill="none" stroke="#fff" style="stroke: var(--color2, #fff)" stroke-linejoin="round" stroke-linecap="round" stroke-miterlimit="4" stroke-width="0.64" d="M28.19 11.428v-4.581c0-0.807-0.32-1.58-0.889-2.152s-1.342-0.893-2.149-0.896l-4.581-0.014M28.19 20.571v4.571c0 0.808-0.321 1.583-0.893 2.155s-1.347 0.893-2.155 0.893h-4.571M11.428 3.787l-4.581 0.015c-0.807 0.002-1.58 0.325-2.149 0.896s-0.889 1.345-0.889 2.152v4.579M11.428 28.19h-4.571c-0.808 0-1.583-0.321-2.155-0.893s-0.893-1.347-0.893-2.155v-4.571"></path>
<path fill="#fff" style="fill: var(--color2, #fff)" d="M16 18.75c0.625 0 1.156-0.219 1.594-0.656s0.656-0.969 0.656-1.594c0-0.625-0.219-1.156-0.656-1.594s-0.969-0.656-1.594-0.656-1.156 0.219-1.594 0.656c-0.437 0.438-0.656 0.969-0.656 1.594s0.219 1.156 0.656 1.594c0.438 0.437 0.969 0.656 1.594 0.656zM12 20.5c-0.275 0-0.51-0.098-0.706-0.293s-0.294-0.432-0.294-0.706v-6c0-0.275 0.098-0.51 0.294-0.706s0.431-0.294 0.706-0.294h1.575l0.925-1h3l0.925 1h1.575c0.275 0 0.511 0.098 0.706 0.294s0.294 0.431 0.294 0.706v6c0 0.275-0.098 0.51-0.294 0.706s-0.431 0.293-0.706 0.293h-8z"></path>
</symbol>
<symbol id="clothing" viewBox="0 0 32 32">
<path fill="#3a6af5" style="fill: var(--color3, #3a6af5)" d="M28.8 24.267l-11.467-8.6v-1.213c2.2-0.653 3.733-2.893 3.24-5.4-0.347-1.747-1.733-3.2-3.48-3.6-3.040-0.693-5.76 1.613-5.76 4.547h2.667c0-1.107 0.893-2 2-2s2 0.893 2 2c0 1.12-0.92 2.027-2.040 2-0.72-0.013-1.293 0.6-1.293 1.32v2.347l-11.467 8.6c-1.027 0.773-0.48 2.4 0.8 2.4h24c1.28 0 1.827-1.627 0.8-2.4zM8 24l8-6 8 6h-16z"></path>
</symbol>
<symbol id="beauty" viewBox="0 0 32 32">
<path fill="#3a6af5" style="fill: var(--color3, #3a6af5)" d="M26.667 8h-5.333v-2.667c0-1.467-1.2-2.667-2.667-2.667h-5.333c-1.467 0-2.667 1.2-2.667 2.667v2.667h-5.333c-1.467 0-2.667 1.2-2.667 2.667v16c0 1.467 1.2 2.667 2.667 2.667h21.333c1.467 0 2.667-1.2 2.667-2.667v-16c0-1.467-1.2-2.667-2.667-2.667zM13.333 5.333h5.333v2.667h-5.333v-2.667zM21.333 20h-4v4h-2.667v-4h-4v-2.667h4v-4h2.667v4h4v2.667z"></path>
</symbol>
</defs>
</svg>
